<?xml version="1.0" standalone="no"?>
<!DOCTYPE svg PUBLIC "-//W3C//DTD SVG 20010904//EN"
 "http://www.w3.org/TR/2001/REC-SVG-20010904/DTD/svg10.dtd">
<svg version="1.0" xmlns="http://www.w3.org/2000/svg"
 width="444.000000pt" height="444.000000pt" viewBox="0 0 444.000000 444.000000"
 preserveAspectRatio="xMidYMid meet">
<metadata>
Created by potrace 1.14, written by Peter Selinger 2001-2017
</metadata>
<g transform="translate(0.000000,444.000000) scale(0.100000,-0.100000)"
fill="#000000" stroke="none">
<path d="M2710 4093 c-109 -17 -235 -67 -322 -129 -33 -23 -54 -31 -70 -28
-13 3 -287 7 -611 8 -475 1 -587 -1 -583 -11 3 -7 2 -13 -2 -13 -4 0 -7 -16
-7 -35 0 -19 4 -35 8 -35 5 0 5 -5 1 -11 -9 -15 -11 -97 -3 -111 4 -7 3 -20
-2 -29 -6 -12 -5 -20 1 -24 6 -4 7 -12 3 -18 -10 -17 -10 -40 1 -54 5 -8 5
-13 -1 -13 -5 0 -9 -9 -9 -20 0 -11 4 -20 9 -20 4 0 5 -5 1 -11 -10 -16 -11
-89 -1 -89 5 0 5 -5 2 -11 -11 -16 -12 -69 -3 -69 5 0 5 -8 0 -17 -4 -10 -7
-36 -5 -58 2 -22 3 -46 3 -52 0 -35 0 -44 1 -55 0 -7 -2 -25 -4 -40 -2 -16 0
-28 6 -28 6 0 5 -5 -1 -13 -7 -8 -7 -18 -2 -27 5 -8 6 -18 3 -23 -9 -14 -9
-87 0 -87 5 0 5 -5 2 -11 -11 -16 -12 -69 -2 -69 4 0 5 -5 1 -11 -9 -15 -11
-97 -3 -111 4 -7 3 -20 -2 -29 -6 -12 -5 -20 1 -24 6 -4 7 -12 3 -18 -10 -15
-10 -38 0 -54 5 -7 4 -13 0 -13 -5 0 -9 -9 -9 -20 0 -11 4 -20 9 -20 4 0 5 -5
1 -11 -10 -16 -11 -89 -1 -89 5 0 5 -5 2 -11 -11 -16 -12 -69 -3 -69 5 0 5 -8
0 -17 -4 -10 -7 -36 -5 -58 2 -22 3 -46 3 -52 0 -35 0 -44 1 -55 0 -7 -2 -25
-4 -40 -2 -16 0 -28 6 -28 6 0 5 -5 -1 -13 -7 -8 -7 -18 -2 -27 5 -8 6 -18 3
-23 -9 -14 -9 -87 0 -87 5 0 5 -5 2 -11 -11 -16 -12 -69 -2 -69 4 0 5 -5 1
-11 -10 -17 -11 -89 -1 -89 6 0 6 -5 1 -12 -11 -16 -11 -39 -1 -55 5 -7 4 -13
0 -13 -5 0 -9 -9 -9 -20 0 -11 4 -20 9 -20 5 0 5 -6 -1 -13 -7 -8 -7 -18 -2
-27 5 -8 5 -21 0 -30 -5 -9 -5 -22 0 -30 4 -7 6 -18 4 -24 -10 -26 -11 -76 -1
-76 6 0 6 -5 1 -12 -11 -16 -11 -39 -1 -55 5 -7 4 -13 0 -13 -5 0 -9 -9 -9
-20 0 -11 4 -20 9 -20 5 0 5 -6 -1 -13 -7 -8 -7 -18 -2 -27 5 -8 5 -21 0 -30
-5 -9 -5 -22 0 -30 4 -7 6 -18 4 -24 -10 -26 -11 -76 -1 -76 6 0 6 -5 1 -12
-11 -16 -11 -39 -1 -55 5 -7 4 -13 0 -13 -5 0 -9 -9 -9 -20 0 -11 4 -20 9 -20
5 0 5 -6 -1 -13 -7 -8 -7 -18 -2 -27 5 -8 5 -21 0 -30 -5 -9 -5 -22 0 -30 4
-7 6 -18 4 -24 -10 -26 -11 -76 -1 -76 6 0 6 -5 1 -12 -11 -16 -11 -39 -1 -55
5 -7 4 -13 0 -13 -5 0 -9 -9 -9 -20 0 -11 4 -20 9 -20 5 0 5 -6 -1 -13 -7 -8
-7 -18 -2 -27 5 -8 5 -21 0 -30 -5 -9 -5 -22 -1 -29 5 -7 5 -28 1 -47 -5 -20
-4 -34 2 -34 5 0 6 -5 3 -11 -11 -16 -12 -69 -3 -69 5 0 5 -8 1 -17 -8 -16 -9
-40 -4 -91 1 -10 47 -12 213 -10 l213 3 0 754 0 754 195 0 c260 -1 347 -18
455 -91 40 -27 117 -104 143 -145 8 -12 20 -27 26 -32 14 -13 44 -63 59 -97 6
-16 14 -28 18 -28 4 0 12 -15 20 -32 7 -18 15 -35 18 -38 4 -3 26 -45 51 -95
25 -49 48 -92 51 -95 3 -3 19 -32 36 -65 58 -117 87 -170 96 -176 5 -3 8 -10
8 -15 0 -5 16 -40 36 -79 20 -38 35 -72 34 -74 -1 -2 2 -7 7 -10 12 -7 97
-173 94 -183 -1 -5 3 -8 8 -8 6 0 10 -6 10 -13 0 -7 6 -19 13 -26 6 -6 12 -15
12 -19 1 -4 16 -36 35 -72 19 -36 41 -77 48 -93 l14 -27 230 0 c141 0 228 4
226 10 -5 15 -162 323 -171 335 -4 5 -37 69 -73 140 -37 72 -70 135 -75 141
-5 6 -6 14 -2 17 3 4 2 7 -4 7 -9 0 -16 13 -27 50 -1 3 -16 30 -34 61 -17 31
-32 62 -32 68 0 6 -5 11 -12 11 -6 0 -8 3 -5 7 4 3 3 11 -2 17 -4 6 -48 88
-96 181 -48 94 -93 173 -99 177 -6 4 -8 8 -3 8 9 0 -91 162 -107 172 -6 5 -7
8 -1 8 6 0 6 3 0 8 -6 4 -25 26 -43 48 -44 57 -78 93 -135 142 l-47 41 38 10
c54 15 218 100 286 148 56 41 136 109 136 117 0 3 12 17 28 33 30 32 61 70 79
99 29 44 83 154 76 154 -5 0 -2 4 4 8 7 4 14 17 16 27 1 11 5 25 9 30 3 6 9
24 12 41 5 23 24 45 69 80 34 27 75 64 92 83 16 19 35 39 40 45 19 20 65 96
65 106 0 22 34 5 226 -111 109 -67 215 -131 234 -141 19 -11 54 -33 78 -49 24
-16 45 -29 47 -29 2 0 32 -18 67 -40 l63 -39 32 52 c18 29 33 54 33 57 0 7
-68 50 -80 50 -5 0 -10 5 -10 10 0 6 -4 10 -9 10 -6 0 -144 81 -308 181 -164
100 -301 183 -305 185 -3 2 -2 19 3 37 17 54 21 89 22 172 0 73 -4 109 -19
187 -3 15 -5 30 -5 33 0 3 -15 38 -33 80 -108 236 -285 379 -547 441 -29 7
-214 12 -249 7z m235 -98 c179 -37 326 -136 424 -287 23 -35 41 -68 41 -74 0
-6 7 -17 15 -24 8 -7 13 -16 10 -20 -2 -4 5 -31 16 -61 11 -30 18 -62 15 -71
-2 -10 -1 -20 2 -22 8 -5 7 -123 -2 -188 -12 -89 -101 -288 -129 -288 -4 0 -7
-3 -5 -7 2 -5 -18 -29 -44 -54 -33 -32 -48 -42 -52 -33 -3 8 -1 14 5 14 6 0 6
6 0 18 -7 13 -6 23 2 32 9 10 9 11 -2 5 -10 -6 -12 -4 -5 6 11 18 12 89 0 89
-5 0 -3 7 4 15 7 8 9 15 4 15 -5 0 -9 15 -10 33 -3 144 -77 331 -186 469 -112
141 -280 252 -483 319 l-99 33 64 30 c131 61 279 79 415 51z m-855 -459 c0 -8
-3 -17 -7 -19 -5 -3 -8 -28 -8 -56 0 -28 -3 -51 -6 -51 -10 0 2 -163 16 -225
11 -46 37 -117 53 -142 8 -13 10 -23 6 -23 -5 0 -4 -4 1 -8 6 -4 23 -27 38
-52 29 -49 71 -104 100 -129 10 -9 37 -32 60 -53 62 -55 186 -116 287 -142 49
-12 92 -25 95 -27 2 -3 -6 -17 -18 -31 -12 -15 -38 -47 -57 -71 -88 -112 -268
-202 -450 -224 -30 -4 -190 -8 -355 -8 l-300 0 0 638 0 637 272 0 c231 0 273
-2 273 -14z m277 -16 c96 -25 156 -53 229 -108 80 -60 174 -192 174 -244 0 -9
4 -19 9 -23 6 -3 10 -13 10 -23 2 -50 6 -72 11 -72 7 0 4 -196 -4 -230 -3 -14
-10 -46 -17 -72 l-11 -46 -45 5 c-125 13 -267 83 -369 181 -64 61 -157 209
-157 250 0 6 -4 12 -9 12 -5 0 -8 6 -7 13 1 6 -1 19 -4 27 -4 8 -8 31 -10 50
-2 19 -5 40 -8 45 -12 24 8 225 25 254 8 12 96 3 183 -19z"/>
</g>
</svg>
